# xmcd
#
# Track frame offsets: 
#        150
#        12020
#        22950
#        32683
#        43950
#        63428
#        76215
#        87505
#        103182
#
# Disc length: 1628 seconds
#
# Revision: 0
# Processed by: cddbd v1.5.2PL0 Copyright (c) Steve Scherf et al.
# Submitted via: ExactAudioCopy v1.3
#
DISCID=68065a09
DTITLE=Marty Robbins - Country Music
DYEAR=1973
DGENRE=Country
TTITLE0=I'll Go on Alone
TTITLE1=Singing The Blues
TTITLE2=Knee Deep in The Blues
TTITLE3=A White Sport Coat
TTITLE4=El Paso
TTITLE5=Devil Woman
TTITLE6=Ribbon of Darkness
TTITLE7=My Woman My Woman My Wife
TTITLE8=El Paso City
EXTD=
EXTT0=
EXTT1=
EXTT2=
EXTT3=
EXTT4=
EXTT5=
EXTT6=
EXTT7=
EXTT8=
PLAYORDER=
